PathFileType	4	(x/y/z)	S09_PSF_T11
DataRate	CameraRate	NumFrames	NumMarkers	Units	OrigDataRate	OrigDataStartFrame	OrigNumFrames
240	240	11	51	mm	240	58	458
Frame#	Time	Sternum			R.Acromium			L.Acromium			Top.Head			R.ASIS			L.ASIS			R.PSIS			L.PSIS			R.Great.Tro			L.Great.Tro			R.Iliac.Crest			L.Iliac.Crest			V.Sacral			R.Thigh.Upper.Post			R.Thigh.Lower.Ant			R.Thigh.Lower.Post			R.Thigh.Upper.Ant			R.Knee.Lat			R.Knee.Med			R.Shank.Upper.Post			R.Shank.Lower.Ant			R.Shank.Lower.Post			R.Shank.Upper.Ant			R.Ankle.Lat			R.Ankle.Med			R.Heel.Upper			R.Heel.Med			R.Heel.Lat			R.Toe.Lat			R.Toe.Med			R.Toe.Tip			L.Thigh.Upper.Post			L.Thigh.Lower.Ant			L.Thigh.Lower.Post			L.Thigh.Upper.Ant			L.Knee.Lat			L.Knee.Med			L.Shank.Upper.Post			L.Shank.Lower.Ant			L.Shank.Lower.Post			L.Shank.Upper.Ant			L.Ankle.Lat			L.Ankle.Med			L.Heel.Upper			L.Heel.Med			L.Heel.Lat			L.Toe.Lat			L.Toe.Med			L.Toe.Tip			Cervical.Spine			Back			
		X1	Y1	Z1	X2	Y2	Z2	X3	Y3	Z3	X4	Y4	Z4	X5	Y5	Z5	X6	Y6	Z6	X7	Y7	Z7	X8	Y8	Z8	X9	Y9	Z9	X10	Y10	Z10	X11	Y11	Z11	X12	Y12	Z12	X13	Y13	Z13	X14	Y14	Z14	X15	Y15	Z15	X16	Y16	Z16	X17	Y17	Z17	X18	Y18	Z18	X19	Y19	Z19	X20	Y20	Z20	X21	Y21	Z21	X22	Y22	Z22	X23	Y23	Z23	X24	Y24	Z24	X25	Y25	Z25	X26	Y26	Z26	X27	Y27	Z27	X28	Y28	Z28	X29	Y29	Z29	X30	Y30	Z30	X31	Y31	Z31	X32	Y32	Z32	X33	Y33	Z33	X34	Y34	Z34	X35	Y35	Z35	X36	Y36	Z36	X37	Y37	Z37	X38	Y38	Z38	X39	Y39	Z39	X40	Y40	Z40	X41	Y41	Z41	X42	Y42	Z42	X43	Y43	Z43	X44	Y44	Z44	X45	Y45	Z45	X46	Y46	Z46	X47	Y47	Z47	X48	Y48	Z48	X49	Y49	Z49	X50	Y50	Z50	X51	Y51	Z51	

58	0.2375	NaN	NaN	NaN	-1411.5	1423.4	478.39	-1412.9	1427.4	165.92	-1406.6	1734.4	321.26	NaN	NaN	NaN	NaN	NaN	NaN	NaN	NaN	NaN	NaN	NaN	NaN	-1381.8	917.87	501.44	-1331.2	933.83	118.68	-1401.9	1089.4	477.17	-1394.1	1113.6	150.54	-1523.1	994.51	291.6	-1337	673.09	502.7	-1243.5	581.77	493.44	-1327.8	580.93	488.06	-1263.3	669.99	504.81	-1269.6	498.88	490	-1252.4	481.66	366.35	-1440.8	434.79	480.14	-1454.9	345.06	468.2	-1501.1	392.06	462.89	-1389.3	389.26	485.63	-1633.6	265.87	428.29	-1591.3	246.26	347.03	-1676	306.85	365.61	-1688.7	279.75	333.21	-1712.3	292.41	395.54	-1645	149.98	466.17	-1592.8	110.5	375.18	-1562.5	82.115	426.32	-1355.1	664.48	175.67	-1259.1	582.54	188.3	-1325.7	581.05	201.76	-1283.3	665.31	158.82	-1262.9	505.79	206.3	-1250.3	528.21	336.3	-1307.1	371.92	199.1	-1244.3	283.33	219.69	-1307	294.92	209.93	-1245	361.02	209.41	-1293.1	101.11	243.71	-1277.7	100.21	337.29	-1360.6	68.337	300.92	-1335	44.307	335.11	-1359.8	40.584	271.44	-1188	44.113	215.36	-1150.7	48.919	323.94	-1102	69.499	264.44	-1494.9	1471.8	334.3	-1521.7	1200.7	312.75
59	0.24167	NaN	NaN	NaN	-1406.4	1424.4	478.14	-1407.7	1428.6	165.73	-1401	1735.3	321.1	NaN	NaN	NaN	NaN	NaN	NaN	NaN	NaN	NaN	NaN	NaN	NaN	-1376.6	919.01	501.11	-1327.1	934.43	118.48	-1397.4	1090.5	476.77	-1389	1114.4	150.08	-1518.4	995.59	291.09	-1328.4	674.73	502.87	-1234.2	584.51	493.15	-1318.3	582.78	488.28	-1254.8	672.52	504.6	-1259.2	501.27	489.78	-1241.7	484.25	366.02	-1429.2	435.31	480.21	-1442.4	345.46	468.43	-1489.5	391.97	462.98	-1377.7	390.53	485.63	-1620.6	264.12	428.84	-1578.1	245	347.41	-1663.9	303.94	366.22	-1676.2	276.5	333.9	-1699.4	289.08	396.11	-1629.5	148.13	467.09	-1576.5	109.5	376.04	-1545.8	81.786	427.31	-1353	665.35	175.74	-1257.7	582.8	187.93	-1324	581.73	201.67	-1281.2	665.63	158.5	-1261.5	505.9	205.86	-1248.2	528.34	335.81	-1306.2	372.12	198.73	-1243.7	283.3	219.36	-1306.3	295.14	209.65	-1244.1	360.99	209.03	-1293	101.16	243.65	-1277.6	100.37	337.22	-1360.8	68.573	300.85	-1334.7	44.309	335.17	-1359.7	40.726	271.42	-1187.9	43.99	215.27	-1150.6	48.852	323.85	-1101.9	69.242	264.31	-1489.7	1472.9	334.08	-1516.9	1201.9	312.15
60	0.24583	NaN	NaN	NaN	-1401.2	1425.4	477.9	-1402.3	1429.7	165.54	-1395.4	1736.3	320.95	NaN	NaN	NaN	NaN	NaN	NaN	NaN	NaN	NaN	NaN	NaN	NaN	-1371.5	920.14	500.81	-1323	935.04	118.27	-1393	1091.6	476.41	-1383.9	1115.3	149.65	-1513.8	996.65	290.63	-1319.9	676.39	503.04	-1225	587.26	492.82	-1308.8	584.65	488.47	-1246.4	675.06	504.39	-1248.8	503.7	489.54	-1231.2	486.9	365.68	-1417.8	435.81	480.2	-1429.9	345.85	468.67	-1477.9	391.78	463.05	-1366.1	391.78	485.62	-1607.5	262.17	429.43	-1564.9	243.55	347.84	-1651.6	300.78	366.87	-1663.7	273	334.65	-1686.5	285.47	396.75	-1613.8	146.11	468.02	-1560.1	108.38	376.9	-1528.9	81.338	428.3	-1350.8	666.23	175.81	-1256.2	583.07	187.56	-1322.3	582.41	201.6	-1279.1	665.96	158.17	-1260.2	506.01	205.41	-1246	528.48	335.32	-1305.3	372.33	198.37	-1243	283.27	219.03	-1305.5	295.37	209.36	-1243.3	360.97	208.64	-1292.9	101.21	243.59	-1277.4	100.53	337.13	-1360.9	68.827	300.77	-1334.5	44.357	335.18	-1359.7	40.869	271.41	-1187.9	43.865	215.18	-1150.6	48.792	323.75	-1101.8	68.983	264.17	-1484.5	1474	333.86	-1512.1	1203.1	311.57
61	0.25	NaN	NaN	NaN	-1396.1	1426.3	477.65	-1397	1430.8	165.34	-1389.8	1737.2	320.8	NaN	NaN	NaN	NaN	NaN	NaN	NaN	NaN	NaN	NaN	NaN	NaN	-1366.2	921.25	500.55	-1319.1	935.65	118.04	-1388.6	1092.6	476.08	-1378.9	1116.1	149.24	-1509.1	997.68	290.24	-1311.4	678.05	503.2	-1215.8	590.04	492.47	-1299.4	586.54	488.63	-1238	677.6	504.17	-1238.6	506.16	489.25	-1220.8	489.58	365.32	-1406.5	436.26	480.14	-1417.3	346.24	468.91	-1466.3	391.49	463.1	-1354.6	393	485.61	-1594.4	260.03	430.05	-1551.6	241.92	348.3	-1639.3	297.38	367.56	-1651	269.27	335.44	-1673.4	281.6	397.43	-1597.9	143.92	468.98	-1543.6	107.12	377.75	-1511.9	80.782	429.27	-1348.7	667.11	175.89	-1254.7	583.33	187.18	-1320.6	583.08	201.54	-1277.1	666.28	157.85	-1259	506.14	204.97	-1244	528.63	334.85	-1304.4	372.53	198.01	-1242.4	283.25	218.72	-1304.8	295.61	209.05	-1242.4	360.95	208.27	-1292.8	101.26	243.53	-1277.2	100.7	337.04	-1361.1	69.099	300.69	-1334.5	44.453	335.14	-1359.6	41.014	271.39	-1187.8	43.738	215.09	-1150.5	48.736	323.65	-1101.7	68.724	264.03	-1479.3	1475	333.63	-1507.2	1204.3	311
62	0.25417	NaN	NaN	NaN	-1390.9	1427.2	477.4	-1391.7	1431.8	165.14	-1384.2	1738.1	320.67	NaN	NaN	NaN	NaN	NaN	NaN	NaN	NaN	NaN	NaN	NaN	NaN	-1361	922.33	500.32	-1315.2	936.26	117.8	-1384.1	1093.6	475.78	-1373.9	1116.9	148.86	-1504.5	998.68	289.9	-1303.1	679.72	503.35	-1206.8	592.82	492.09	-1290	588.42	488.76	-1229.8	680.14	503.95	-1228.5	508.65	488.93	-1210.5	492.3	364.93	-1395.3	436.66	480.02	-1404.8	346.61	469.15	-1454.7	391.1	463.14	-1343.1	394.21	485.59	-1581.1	257.69	430.71	-1538.2	240.12	348.81	-1626.8	293.75	368.3	-1638.2	265.3	336.28	-1660.2	277.46	398.18	-1581.9	141.59	469.96	-1526.9	105.75	378.61	-1494.8	80.133	430.23	-1346.5	667.99	175.99	-1253.1	583.59	186.81	-1318.8	583.74	201.49	-1275	666.6	157.53	-1257.7	506.27	204.54	-1241.9	528.78	334.39	-1303.6	372.73	197.68	-1241.7	283.25	218.41	-1304.1	295.87	208.74	-1241.6	360.93	207.92	-1292.7	101.32	243.47	-1277	100.87	336.93	-1361.3	69.389	300.6	-1334.7	44.595	335.06	-1359.5	41.16	271.38	-1187.8	43.612	215	-1150.4	48.682	323.55	-1101.7	68.464	263.88	-1474.1	1476	333.4	-1502.4	1205.5	310.45
63	0.25833	NaN	NaN	NaN	-1385.8	1428	477.14	-1386.4	1432.9	164.93	-1378.6	1738.9	320.54	NaN	NaN	NaN	NaN	NaN	NaN	NaN	NaN	NaN	NaN	NaN	NaN	-1355.7	923.4	500.13	-1311.3	936.87	117.53	-1379.6	1094.5	475.52	-1369	1117.7	148.51	-1499.9	999.64	289.63	-1294.8	681.4	503.49	-1197.8	595.61	491.67	-1280.7	590.31	488.85	-1221.6	682.67	503.72	-1218.4	511.16	488.57	-1200.4	495.05	364.52	-1384.2	437	479.86	-1392.2	346.96	469.39	-1443	390.6	463.17	-1331.7	395.38	485.55	-1567.7	255.15	431.4	-1524.7	238.15	349.36	-1614.3	289.88	369.07	-1625.3	261.11	337.17	-1646.9	273.05	398.98	-1565.6	139.13	470.96	-1510.1	104.27	379.46	-1477.5	79.403	431.17	-1344.4	668.86	176.09	-1251.5	583.84	186.45	-1317.1	584.39	201.47	-1272.9	666.91	157.22	-1256.4	506.41	204.12	-1240	528.92	333.97	-1302.7	372.93	197.36	-1241.1	283.24	218.11	-1303.3	296.13	208.43	-1240.7	360.91	207.58	-1292.6	101.39	243.42	-1276.8	101.05	336.83	-1361.5	69.694	300.51	-1335	44.779	334.94	-1359.5	41.308	271.37	-1187.7	43.486	214.92	-1150.3	48.628	323.46	-1101.5	68.204	263.73	-1469	1476.9	333.16	-1497.6	1206.6	309.93
64	0.2625	NaN	NaN	NaN	-1380.7	1428.9	476.89	-1381	1433.8	164.71	-1373	1739.7	320.42	NaN	NaN	NaN	NaN	NaN	NaN	NaN	NaN	NaN	NaN	NaN	NaN	-1350.4	924.45	499.97	-1307.6	937.48	117.24	-1375	1095.4	475.28	-1364.1	1118.5	148.19	-1495.3	1000.6	289.42	-1286.6	683.08	503.63	-1189	598.4	491.21	-1271.5	592.19	488.92	-1213.5	685.18	503.48	-1208.5	513.68	488.18	-1190.4	497.8	364.08	-1373.2	437.27	479.66	-1379.7	347.27	469.62	-1431.4	389.98	463.2	-1320.3	396.51	485.5	-1554.2	252.43	432.12	-1511.1	236.01	349.93	-1601.7	285.79	369.88	-1612.2	256.69	338.09	-1633.5	268.38	399.85	-1549.2	136.54	472	-1493.2	102.69	380.31	-1460.1	78.607	432.09	-1342.2	669.72	176.2	-1249.8	584.09	186.1	-1315.3	585.02	201.47	-1270.9	667.22	156.93	-1255.2	506.55	203.71	-1238.1	529.05	333.57	-1301.9	373.14	197.08	-1240.5	283.25	217.83	-1302.5	296.42	208.13	-1239.9	360.9	207.25	-1292.5	101.45	243.37	-1276.6	101.23	336.73	-1361.8	70.012	300.42	-1335.5	45.003	334.78	-1359.4	41.458	271.36	-1187.7	43.364	214.84	-1150.3	48.571	323.36	-1101.4	67.945	263.59	-1463.8	1477.8	332.91	-1492.7	1207.6	309.42
65	0.26667	NaN	NaN	NaN	-1375.6	1429.7	476.64	-1375.7	1434.7	164.49	-1367.3	1740.5	320.3	NaN	NaN	NaN	NaN	NaN	NaN	NaN	NaN	NaN	NaN	NaN	NaN	-1345.1	925.48	499.84	-1303.9	938.08	116.92	-1370.4	1096.3	475.07	-1359.3	1119.3	147.88	-1490.7	1001.4	289.28	-1278.5	684.75	503.75	-1180.2	601.18	490.72	-1262.3	594.06	488.95	-1205.5	687.68	503.23	-1198.7	516.21	487.74	-1180.6	500.56	363.62	-1362.3	437.45	479.42	-1367.2	347.52	469.83	-1419.7	389.24	463.23	-1308.9	397.6	485.43	-1540.6	249.52	432.87	-1497.5	233.71	350.54	-1588.9	281.49	370.73	-1599	252.05	339.06	-1619.9	263.47	400.77	-1532.6	133.84	473.06	-1476.2	101.02	381.16	-1442.5	77.76	433	-1340	670.57	176.32	-1248.1	584.32	185.76	-1313.5	585.65	201.48	-1268.8	667.51	156.65	-1253.9	506.69	203.33	-1236.2	529.17	333.2	-1301.1	373.34	196.83	-1239.8	283.26	217.55	-1301.8	296.7	207.83	-1239.1	360.89	206.94	-1292.4	101.53	243.34	-1276.5	101.41	336.63	-1362	70.34	300.32	-1336.1	45.262	334.59	-1359.3	41.609	271.36	-1187.7	43.247	214.76	-1150.2	48.51	323.28	-1101.3	67.687	263.45	-1458.7	1478.7	332.66	-1487.9	1208.6	308.93
66	0.27083	NaN	NaN	NaN	-1370.5	1430.5	476.39	-1370.3	1435.6	164.26	-1361.7	1741.2	320.18	NaN	NaN	NaN	NaN	NaN	NaN	NaN	NaN	NaN	NaN	NaN	NaN	-1339.8	926.5	499.74	-1300.3	938.68	116.57	-1365.8	1097.1	474.88	-1354.6	1120	147.6	-1486.1	1002.3	289.2	-1270.5	686.42	503.85	-1171.5	603.96	490.18	-1253.2	595.92	488.95	-1197.6	690.15	502.97	-1188.9	518.75	487.28	-1171	503.31	363.13	-1351.4	437.54	479.15	-1354.7	347.69	470.02	-1408.1	388.38	463.25	-1297.6	398.64	485.35	-1526.8	246.43	433.64	-1483.7	231.26	351.16	-1576.1	276.99	371.59	-1585.6	247.2	340.07	-1606.2	258.33	401.76	-1515.8	131.05	474.15	-1459	99.266	382.02	-1424.8	76.874	433.89	-1337.9	671.4	176.44	-1246.4	584.54	185.45	-1311.7	586.25	201.52	-1266.7	667.8	156.39	-1252.7	506.82	202.96	-1234.4	529.27	332.87	-1300.3	373.53	196.61	-1239.2	283.27	217.29	-1301	297	207.55	-1238.3	360.88	206.64	-1292.3	101.6	243.32	-1276.3	101.59	336.53	-1362.3	70.673	300.24	-1336.9	45.55	334.38	-1359.3	41.762	271.36	-1187.6	43.136	214.69	-1150.1	48.443	323.19	-1101.2	67.43	263.31	-1453.6	1479.5	332.39	-1483	1209.6	308.46
67	0.275	NaN	NaN	NaN	-1365.4	1431.2	476.14	-1364.9	1436.4	164.02	-1356	1741.9	320.07	NaN	NaN	NaN	NaN	NaN	NaN	NaN	NaN	NaN	NaN	NaN	NaN	-1334.4	927.5	499.67	-1296.7	939.27	116.21	-1361.1	1097.9	474.7	-1349.9	1120.7	147.35	-1481.6	1003	289.19	-1262.6	688.08	503.95	-1163	606.71	489.61	-1244.2	597.76	488.92	-1189.8	692.59	502.69	-1179.3	521.29	486.78	-1161.5	506.04	362.61	-1340.7	437.53	478.85	-1342.2	347.77	470.19	-1396.4	387.39	463.27	-1286.4	399.63	485.25	-1512.9	243.16	434.43	-1469.8	228.66	351.8	-1563.1	272.29	372.48	-1572.1	242.14	341.11	-1592.4	252.97	402.79	-1498.8	128.17	475.27	-1441.7	97.449	382.88	-1407	75.963	434.77	-1335.7	672.22	176.58	-1244.6	584.75	185.15	-1309.8	586.85	201.57	-1264.6	668.07	156.15	-1251.4	506.95	202.62	-1232.6	529.35	332.57	-1299.6	373.73	196.43	-1238.6	283.28	217.05	-1300.3	297.3	207.29	-1237.5	360.88	206.37	-1292.1	101.68	243.3	-1276.1	101.77	336.45	-1362.5	71.004	300.16	-1337.7	45.862	334.15	-1359.2	41.917	271.37	-1187.6	43.032	214.62	-1150	48.369	323.12	-1101.1	67.175	263.19	-1448.5	1480.3	332.13	-1478.2	1210.5	308.02
68	0.27917	NaN	NaN	NaN	-1360.4	1431.9	475.9	-1359.5	1437.2	163.77	-1350.3	1742.6	319.95	NaN	NaN	NaN	NaN	NaN	NaN	NaN	NaN	NaN	NaN	NaN	NaN	-1329	928.49	499.63	-1293.3	939.86	115.82	-1356.3	1098.6	474.54	-1345.3	1121.4	147.11	-1477	1003.7	289.24	-1254.8	689.72	504.02	-1154.5	609.44	488.99	-1235.3	599.58	488.85	-1182.1	695	502.39	-1169.8	523.81	486.24	-1152.3	508.74	362.06	-1329.9	437.42	478.54	-1329.7	347.76	470.34	-1384.7	386.28	463.3	-1275.2	400.56	485.13	-1498.8	239.73	435.24	-1455.8	225.93	352.46	-1550	267.39	373.39	-1558.3	236.89	342.18	-1578.4	247.41	403.88	-1481.6	125.21	476.41	-1424.3	95.577	383.76	-1389	75.04	435.64	-1333.5	673.01	176.72	-1242.8	584.93	184.88	-1307.9	587.42	201.64	-1262.4	668.33	155.94	-1250.2	507.07	202.31	-1230.9	529.41	332.3	-1298.8	373.91	196.27	-1238.1	283.3	216.82	-1299.5	297.59	207.05	-1236.7	360.87	206.1	-1292	101.76	243.31	-1276	101.96	336.37	-1362.7	71.329	300.1	-1338.5	46.191	333.92	-1359.1	42.074	271.38	-1187.5	42.936	214.56	-1149.9	48.286	323.06	-1101	66.921	263.07	-1443.4	1481	331.86	-1473.3	1211.4	307.59
